<svg width="167" height="289" viewBox="0 0 167 289" fill="none" xmlns="http://www.w3.org/2000/svg">
<path d="M137.889 146.057V133.045H150.902V68.0605H137.889V55.0479H124.876V42.0352H59.8921V55.0479H111.943V68.0605H124.876V146.057H137.889ZM59.8921 68.0605V55.0479H46.8794V68.0605H59.8921ZM46.8794 81.0732V68.0605H33.946V81.0732H46.8794ZM124.876 159.07V146.057H111.943V159.07H124.876ZM111.943 172.003V159.07H98.9302V172.003H111.943ZM98.9302 185.016V172.003H85.9175V185.016H98.9302ZM85.9175 198.029V185.016H72.9048V198.029H85.9175ZM72.9048 211.042V198.029H59.8921V211.042H72.9048ZM150.902 250V237.067H163.914V211.042H150.902V224.054H59.8921V211.042H46.8794V224.054H33.946V237.067H21.0127V250H150.902Z" fill="white"/>
</svg>
