<svg width="167" height="289" viewBox="0 0 167 289" fill="none" xmlns="http://www.w3.org/2000/svg">
<path d="M121.943 275.946V262.934H134.956V250H147.968V224.054H160.981V159.07H147.968V146.057H134.956V133.045H95.9968V120.032H109.01V107.019H121.943V94.0066H134.956V55.0479H121.943V42.0352H56.9587V55.0479H95.9968V68.0605H109.01V94.0066H95.9968V107.019H82.9841V120.032H69.9714V133.045H56.9587V146.057H109.01V159.07H121.943V172.003H134.956V224.054H121.943V250H109.01V262.934H95.9968V275.946H121.943ZM56.9587 68.0605V55.0479H43.946V68.0605H56.9587ZM43.946 81.0732V68.0605H31.0127V81.0732H43.946ZM56.9587 159.07V146.057H43.946V159.07H56.9587ZM95.9968 288.959V275.946H69.9714V262.934H56.9587V250H31.0127V275.946H43.946V288.959H95.9968Z" fill="white"/>
</svg>
