<svg width="167" height="289" viewBox="0 0 167 289" fill="none" xmlns="http://www.w3.org/2000/svg">
<path d="M143.994 42.0352V29.0225H130.981V42.0352H143.994ZM130.981 55.0479V42.0352H117.968V55.0479H130.981ZM117.968 68.0605V55.0479H104.956V68.0605H117.968ZM104.956 81.0732V68.0605H91.9429V81.0732H104.956ZM91.9429 94.0066V81.0732H79.0095V94.0066H91.9429ZM157.006 250V237.067H130.981V185.016H157.006V172.003H130.981V94.0066H117.968V107.019H104.956V172.003H13.946V159.07H1.0127V185.016H104.956V237.067H79.0095V250H157.006ZM79.0095 107.019V94.0066H65.9968V107.019H79.0095ZM65.9968 120.032V107.019H52.9841V120.032H65.9968ZM52.9841 133.045V120.032H39.9714V133.045H52.9841ZM39.9714 146.057V133.045H26.9587V146.057H39.9714ZM26.9587 159.07V146.057H13.946V159.07H26.9587Z" fill="white"/>
</svg>
