<svg width="167" height="289" viewBox="0 0 167 289" fill="none" xmlns="http://www.w3.org/2000/svg">
<path d="M147.968 68.0605V42.0352H56.9587V68.0605H147.968ZM56.9587 94.0066V68.0605H43.946V94.0066H56.9587ZM160.981 211.042V146.057H147.968V133.045H121.943V120.032H82.9841V107.019H43.946V94.0066H31.0127V133.045H82.9841V146.057H121.943V159.07H134.956V172.003H147.968V211.042H160.981ZM147.968 237.067V211.042H134.956V237.067H147.968ZM134.956 250V237.067H109.01V250H134.956ZM109.01 262.934V250H82.9841V262.934H109.01ZM82.9841 275.946V262.934H31.0127V275.946H82.9841Z" fill="white"/>
</svg>
