<svg width="167" height="289" viewBox="0 0 167 289" fill="none" xmlns="http://www.w3.org/2000/svg">
<path d="M150.981 16.0095V3.07617H111.943V16.0095H150.981ZM124.956 250V237.067H137.968V224.054H150.981V198.029H163.994V159.07H150.981V133.044H137.968V120.032H124.956V107.019H85.9968V120.032H111.943V133.044H124.956V159.07H137.968V198.029H124.956V224.054H111.943V237.067H72.9841V224.054H59.9714V198.029H46.9587V120.032H59.9714V81.073H72.9841V55.0476H85.9968V42.0349H99.0095V29.0222H111.943V16.0095H85.9968V29.0222H72.9841V42.0349H59.9714V55.0476H46.9587V81.073H33.946V120.032H21.0127V198.029H33.946V224.054H46.9587V237.067H59.9714V250H124.956ZM85.9968 133.044V120.032H72.9841V133.044H85.9968Z" fill="white"/>
</svg>
