<svg width="167" height="289" viewBox="0 0 167 289" fill="none" xmlns="http://www.w3.org/2000/svg">
<path d="M111.943 55.0479V42.0352H72.9841V55.0479H111.943ZM150.981 237.067V224.054H163.994V172.003H150.981V159.07H137.968V146.057H124.956V120.032H111.943V133.045H92.5032V120.032H72.9841V107.019H59.9714V68.0605H72.9841V55.0479H46.9587V68.0605H33.946V120.032H46.9587V133.045H59.9714V146.057H85.9968V159.07H111.943V172.003H124.956V185.016H137.968V224.054H124.956V237.067H150.981ZM137.968 120.032V107.019H150.981V68.0605H137.968V55.0479H111.943V68.0605H124.956V120.032H137.968ZM59.9714 159.07V146.057H46.9587V159.07H59.9714ZM124.956 250V237.067H72.9841V224.054H59.9714V211.042H46.9587V159.07H33.946V172.003H21.0127V224.054H33.946V237.067H59.9714V250H124.956Z" fill="white"/>
</svg>
