<svg width="167" height="289" viewBox="0 0 167 289" fill="none" xmlns="http://www.w3.org/2000/svg">
<path d="M99.0095 275.946V262.934H111.943V250H124.956V237.067H137.968V211.042H150.981V172.003H163.994V94.0066H150.981V68.0605H137.968V55.0479H124.956V42.0352H59.9714V55.0479H46.9587V68.0605H33.946V94.0066H21.0127V133.045H33.946V159.07H46.9587V172.003H59.9714V185.016H99.0095V172.003H72.9841V159.07H59.9714V133.045H46.9587V94.0066H59.9714V68.0605H72.9841V55.0479H111.943V68.0605H124.956V94.0066H137.968V172.003H124.956V211.042H111.943V237.067H99.0095V250H85.9968V262.934H72.9841V275.946H99.0095ZM111.943 172.003V159.07H99.0095V172.003H111.943ZM72.9841 288.959V275.946H33.946V288.959H72.9841Z" fill="white"/>
</svg>
