<svg width="167" height="289" viewBox="0 0 167 289" fill="none" xmlns="http://www.w3.org/2000/svg">
<path d="M129.889 146.057V133.045H142.902V68.0605H129.889V55.0479H116.876V42.0352H51.8921V55.0479H103.943V68.0605H116.876V146.057H129.889ZM51.8921 68.0605V55.0479H38.8794V68.0605H51.8921ZM38.8794 81.0732V68.0605H25.946V81.0732H38.8794ZM116.876 159.07V146.057H103.943V159.07H116.876ZM103.943 172.003V159.07H90.9302V172.003H103.943ZM90.9302 185.016V172.003H77.9175V185.016H90.9302ZM77.9175 198.029V185.016H64.9048V198.029H77.9175ZM64.9048 211.042V198.029H51.8921V211.042H64.9048ZM142.902 250V237.067H155.914V211.042H142.902V224.054H51.8921V211.042H38.8794V224.054H25.946V237.067H13.0127V250H142.902Z" fill="white"/>
</svg>
