<svg width="167" height="289" viewBox="0 0 167 289" fill="none" xmlns="http://www.w3.org/2000/svg">
<path d="M103.943 275.946V262.934H116.956V250H129.968V224.054H142.981V159.07H129.968V146.057H116.956V133.045H77.9968V120.032H91.0095V107.019H103.943V94.0066H116.956V55.0479H103.943V42.0352H38.9587V55.0479H77.9968V68.0605H91.0095V94.0066H77.9968V107.019H64.9841V120.032H51.9714V133.045H38.9587V146.057H91.0095V159.07H103.943V172.003H116.956V224.054H103.943V250H91.0095V262.934H77.9968V275.946H103.943ZM38.9587 68.0605V55.0479H25.946V68.0605H38.9587ZM25.946 81.0732V68.0605H13.0127V81.0732H25.946ZM38.9587 159.07V146.057H25.946V159.07H38.9587ZM77.9968 288.959V275.946H51.9714V262.934H38.9587V250H13.0127V275.946H25.946V288.959H77.9968Z" fill="white"/>
</svg>
