<svg width="167" height="289" viewBox="0 0 167 289" fill="none" xmlns="http://www.w3.org/2000/svg">
<path d="M142.994 42.0352V29.0225H129.981V42.0352H142.994ZM129.981 55.0479V42.0352H116.968V55.0479H129.981ZM116.968 68.0605V55.0479H103.956V68.0605H116.968ZM103.956 81.0732V68.0605H90.9429V81.0732H103.956ZM90.9429 94.0066V81.0732H78.0095V94.0066H90.9429ZM156.006 250V237.067H129.981V185.016H156.006V172.003H129.981V94.0066H116.968V107.019H103.956V172.003H12.946V159.07H0.0126953V185.016H103.956V237.067H78.0095V250H156.006ZM78.0095 107.019V94.0066H64.9968V107.019H78.0095ZM64.9968 120.032V107.019H51.9841V120.032H64.9968ZM51.9841 133.045V120.032H38.9714V133.045H51.9841ZM38.9714 146.057V133.045H25.9587V146.057H38.9714ZM25.9587 159.07V146.057H12.946V159.07H25.9587Z" fill="white"/>
</svg>
